<?xml version="1.0" encoding="UTF-8"?>
<svg width="41px" height="40px" viewBox="0 0 41 40" version="1.1" xmlns="http://www.w3.org/2000/svg" xmlns:xlink="http://www.w3.org/1999/xlink">
    <!-- Generator: Sketch 49.3 (51167) - http://www.bohemiancoding.com/sketch -->
    <title>googleplus</title>
    <desc>Created with Sketch.</desc>
    <defs></defs>
    <g id="Symbols" stroke="none" stroke-width="1" fill="none" fill-rule="evenodd">
        <g id="Footer" transform="translate(-1307.000000, -8.000000)">
            <g id="googleplus" transform="translate(1307.333333, 8.000000)">
                <circle id="Oval" stroke="#979797" stroke-width="2" cx="20" cy="20" r="19"></circle>
                <path d="M17.9065747,18.4158262 L25.4997734,18.4158262 C26.0284412,22.2496203 24.4331847,28 17.9065747,28 C13.540285,28 10,24.417929 10,19.9996885 C10,15.5814479 13.540285,12 17.9065747,12 C19.9552393,12 21.8219238,12.7881927 23.2265638,14.081701 C21.5720867,15.663071 21.6263723,15.7571557 20.9761788,16.4151252 C20.1637454,15.7353479 19.2779031,15.2474785 17.9065747,15.2474785 C15.3125865,15.2474785 13.2879803,17.3752872 13.2879803,19.9996885 C13.2879803,22.6247128 15.3125865,24.7525215 17.9065747,24.7525215 C20.4697188,24.7525215 21.5110154,23.6340979 22.1809491,21.5798123 C20.9441009,21.5798123 17.9065747,21.5841738 17.9065747,21.5841738 L17.9065747,18.4158262 Z M32.1534611,18.5740878 L34.8930334,18.5740878 L34.8930334,20.5542272 L32.1534611,20.5542272 L32.1534611,23.4060516 L30.1967119,23.4060516 L30.1967119,20.5542272 L27.3781787,20.5542272 L27.3781787,18.5740878 L30.1967119,18.5740878 L30.1967119,15.8020172 L32.1534611,15.8020172 L32.1534611,18.5740878 Z" id="Shape" fill="#979797"></path>
            </g>
        </g>
    </g>
</svg>