<?xml version="1.0" encoding="UTF-8"?>
<svg width="40px" height="40px" viewBox="0 0 40 40" version="1.1" xmlns="http://www.w3.org/2000/svg" xmlns:xlink="http://www.w3.org/1999/xlink">
    <!-- Generator: Sketch 49.3 (51167) - http://www.bohemiancoding.com/sketch -->
    <title>instagram</title>
    <desc>Created with Sketch.</desc>
    <defs></defs>
    <g id="Symbols" stroke="none" stroke-width="1" fill="none" fill-rule="evenodd">
        <g id="Footer" transform="translate(-1370.000000, -8.000000)">
            <g id="instagram" transform="translate(1370.000000, 8.000000)">
                <circle id="Oval" stroke="#979797" stroke-width="2" cx="20" cy="20" r="19"></circle>
                <path d="M20.2499797,11.8468842 C22.9868609,11.8468842 23.3110178,11.8573002 24.3918389,11.9066134 C25.3912038,11.952224 25.9339335,12.1192053 26.2951566,12.2595362 C26.7735595,12.4454778 27.1150492,12.6676313 27.473709,13.026291 C27.8323687,13.3849508 28.0545222,13.7264405 28.2404231,14.2048434 C28.3807947,14.5660665 28.547776,15.1087962 28.5933866,16.1081204 C28.6426998,17.1889822 28.6531158,17.5131391 28.6531158,20.2500203 C28.6531158,22.9869016 28.6426998,23.3110584 28.5933866,24.3918796 C28.547776,25.3912445 28.3807947,25.9339742 28.2404231,26.2951973 C28.0545222,26.7736002 27.8323687,27.1150899 27.473709,27.4737497 C27.1150492,27.8324094 26.7735595,28.0545628 26.2951566,28.2404638 C25.9339335,28.3808354 25.3912038,28.5478167 24.3918389,28.5934273 C23.3111805,28.6427405 22.9870237,28.6531565 20.2499797,28.6531565 C17.5129356,28.6531565 17.1887788,28.6427405 16.1081204,28.5934273 C15.1087555,28.5478167 14.5660258,28.3808354 14.2048434,28.2404638 C13.7263998,28.0545628 13.3849101,27.8324094 13.0262503,27.4737497 C12.6675906,27.1150899 12.4454372,26.7736002 12.2595362,26.2951973 C12.1191646,25.9339742 11.9521833,25.3912445 11.9065727,24.3919203 C11.8572595,23.3110584 11.8468435,22.9869016 11.8468435,20.2500203 C11.8468435,17.5131391 11.8572595,17.1889822 11.9065727,16.1081611 C11.9521833,15.1087962 12.1191646,14.5660665 12.2595362,14.2048434 C12.4454372,13.7264405 12.6675906,13.3849508 13.0262503,13.026291 C13.3849101,12.6676313 13.7263998,12.4454778 14.2048434,12.2595362 C14.5660258,12.1192053 15.1087555,11.952224 16.1080797,11.9066134 C17.1889416,11.8573002 17.5130984,11.8468842 20.2499797,11.8468842 M20.2499797,10 C23.0337329,10 23.3827904,10.0117994 24.4760212,10.0616822 C25.5670549,10.1114836 26.3121233,10.2847307 26.9641395,10.5381321 C27.6381676,10.8000778 28.2097854,11.1505594 28.779613,11.720387 C29.3494406,12.2902146 29.6999222,12.8618324 29.9618679,13.5358605 C30.2152693,14.1878767 30.3885164,14.9329451 30.4383178,16.0239788 C30.4882006,17.1172096 30.5,17.4662671 30.5,20.2500203 C30.5,23.0337736 30.4882006,23.3828311 30.4383178,24.4760619 C30.3885164,25.5670956 30.2152693,26.312164 29.9618679,26.9641802 C29.6999222,27.6382083 29.3494406,28.2098261 28.779613,28.7796537 C28.2097854,29.3494813 27.6381676,29.6999629 26.9641395,29.9619086 C26.3121233,30.21531 25.5670549,30.3885571 24.4760212,30.4383585 C23.3827904,30.4882413 23.0337329,30.5 20.2499797,30.5 C17.4662264,30.5 17.1172096,30.4882413 16.0239381,30.4383585 C14.9329044,30.3885571 14.187836,30.21531 13.5358198,29.9619086 C12.8617917,29.6999629 12.2901739,29.3494813 11.7203463,28.7796537 C11.1505187,28.2098261 10.8000371,27.6381676 10.5380914,26.9641802 C10.28469,26.312164 10.1114429,25.5670956 10.0616415,24.4760619 C10.0117587,23.3828311 10,23.0337736 10,20.2500203 C10,17.4662671 10.0117587,17.1172096 10.0616415,16.0239788 C10.1114429,14.9329451 10.28469,14.1878767 10.5380914,13.5358605 C10.8000371,12.8618324 11.1505187,12.2902146 11.7203463,11.720387 C12.2901739,11.1505594 12.8617917,10.8000778 13.5358198,10.5381321 C14.187836,10.2847307 14.9329044,10.1114836 16.0239381,10.0616822 C17.1172096,10.0117994 17.4662264,10 20.2499797,10 Z M20.2703373,15.0029762 C17.361267,15.0029762 15.0029762,17.361267 15.0029762,20.2703373 C15.0029762,23.1794076 17.361267,25.5376984 20.2703373,25.5376984 C23.1794076,25.5376984 25.5376984,23.1794076 25.5376984,20.2703373 C25.5376984,17.361267 23.1794076,15.0029762 20.2703373,15.0029762 Z M20.2703373,23.6895108 C18.3820027,23.6895108 16.8511638,22.1586719 16.8511638,20.2703373 C16.8511638,18.3820027 18.3820027,16.8511638 20.2703373,16.8511638 C22.1586719,16.8511638 23.6895108,18.3820027 23.6895108,20.2703373 C23.6895108,22.1586719 22.1586719,23.6895108 20.2703373,23.6895108 Z M26.9206349,14.7589084 C26.9206349,14.0849832 26.3743422,13.5386905 25.700417,13.5386905 C25.0264918,13.5386905 24.4801587,14.0849832 24.4801587,14.7589084 C24.4801587,15.4328336 25.0264918,15.9791667 25.700417,15.9791667 C26.3743422,15.9791667 26.9206349,15.4328336 26.9206349,14.7589084 Z" id="Shape" fill="#979797"></path>
            </g>
        </g>
    </g>
</svg>