<?xml version="1.0" encoding="UTF-8"?>
<svg width="41px" height="40px" viewBox="0 0 41 40" version="1.1" xmlns="http://www.w3.org/2000/svg" xmlns:xlink="http://www.w3.org/1999/xlink">
    <!-- Generator: Sketch 49.3 (51167) - http://www.bohemiancoding.com/sketch -->
    <title>twitter</title>
    <desc>Created with Sketch.</desc>
    <defs></defs>
    <g id="Symbols" stroke="none" stroke-width="1" fill="none" fill-rule="evenodd">
        <g id="Footer" transform="translate(-1244.000000, -8.000000)">
            <g id="twitter" transform="translate(1244.666667, 8.000000)">
                <circle id="Oval" stroke="#979797" stroke-width="2" cx="20" cy="20" r="19"></circle>
                <path d="M27.2630024,15.371443 C28.0922698,14.9034378 28.7285774,14.1613462 29.0272055,13.2773364 C28.2507724,13.7117579 27.3927908,14.0259281 26.4773808,14.1960133 C25.7468905,13.4593384 24.7028406,13 23.5473795,13 C21.33064,13 19.534277,14.6954355 19.534277,16.7862921 C19.534277,17.0831287 19.5675855,17.3723819 19.6364997,17.648635 C16.3010533,17.4904666 13.3434864,15.9846165 11.3622037,13.6922577 C11.0164842,14.2534306 10.8189302,14.9034378 10.8189302,15.5967789 C10.8189302,16.9097934 11.5275977,18.068973 12.6049561,18.7493139 C11.9468256,18.7298137 11.3277466,18.5575618 10.7856217,18.275892 L10.7856217,18.3224758 C10.7856217,20.1576629 12.1684996,21.6884299 14.0073597,22.0351004 C13.6696802,22.1239347 13.3159207,22.1683519 12.9483784,22.1683519 C12.6899502,22.1683519 12.4372649,22.1456016 12.1937681,22.1011845 C12.7037331,23.6048678 14.1865365,24.7012133 15.9438481,24.7304637 C14.5690102,25.7466416 12.8381157,26.3511483 10.9579071,26.3511483 C10.6340105,26.3511483 10.3135595,26.3348982 10,26.2991478 C11.7768373,27.372743 13.8867598,28 16.1540364,28 C23.5393395,28 27.5754134,22.2301026 27.5754134,17.2261303 C27.5754134,17.0614618 27.5731163,16.8978766 27.5650763,16.7364582 C28.3495494,16.2023689 29.0317998,15.5350282 29.5681818,14.7756031 C28.8480286,15.0767731 28.0738927,15.280442 27.2630024,15.371443 Z" id="Shape" fill="#979797"></path>
            </g>
        </g>
    </g>
</svg>